<?xml version="1.0" encoding="UTF-8"?>
<svg id="Layer_2" xmlns="http://www.w3.org/2000/svg" viewBox="0 0 841.89 841.89">
  <defs>
    <style>
      .cls-1 {
        fill: #ef4823;
      }

      .cls-2 {
        fill: #fff;
      }

      .cls-3 {
        fill: #00a380;
      }

      .cls-4 {
        fill: #4f6fb6;
      }

      .cls-5 {
        fill: #d43676;
      }

      .cls-6 {
        fill: #f49f1e;
      }

      .cls-7 {
        fill: #393939;
      }
    </style>
  </defs>
  <polygon class="cls-4" points="424.54 437.5 260.46 721.69 588.61 721.69 424.54 437.5"/>
  <polygon class="cls-7" points="424.54 521.19 308.78 721.69 540.29 721.69 424.54 521.19"/>
  <polygon class="cls-3" points="410.2 429.22 82.05 429.22 246.12 713.41 410.2 429.22"/>
  <polygon class="cls-7" points="337.72 471.07 106.21 471.07 221.96 671.57 337.72 471.07"/>
  <polygon class="cls-6" points="246.12 128.48 82.05 412.67 410.2 412.67 246.12 128.48"/>
  <polygon class="cls-7" points="337.72 370.82 221.96 170.32 106.21 370.82 337.72 370.82"/>
  <polygon class="cls-1" points="424.54 404.39 588.61 120.2 260.46 120.2 424.54 404.39"/>
  <polygon class="cls-7" points="424.54 320.7 540.29 120.2 308.78 120.2 424.54 320.7"/>
  <polygon class="cls-5" points="602.95 128.48 438.88 412.67 767.03 412.67 602.95 128.48"/>
  <polygon class="cls-7" points="511.36 370.82 742.87 370.82 627.11 170.32 511.36 370.82"/>
  <polygon class="cls-2" points="524.79 247.31 324.29 247.31 224.04 420.94 324.29 594.58 524.79 594.58 625.03 420.94 524.79 247.31"/>
  <polygon class="cls-7" points="498.05 293.61 351.02 293.61 277.51 420.94 351.02 548.28 498.05 548.28 571.57 420.94 498.05 293.61"/>
  <g>
    <path class="cls-2" d="M319.54,479.36v-113.29h77.17l17.22,17.06v40.58l-12.91,12.91,17.22,42.73h-28.9l-14.91-38.58h-26.13v38.58h-28.74ZM348.28,418.95h32.28l5.38-5.38v-20.29l-5.38-5.38h-32.28v31.05Z"/>
    <path class="cls-2" d="M433.6,479.36v-113.29h31.36l38.12,67.94v-67.94h26.75v113.29h-26.75l-37.2-66.4h-5.53v66.4h-26.75Z"/>
  </g>
</svg>