<?xml version="1.0" encoding="UTF-8"?>
<svg xmlns="http://www.w3.org/2000/svg" viewBox="0 0 2007.09 601.49">
  <defs>
    <style>

    @import url("https://fonts.googleapis.com/css2?family=Tomorrow:ital,wght@0,100;0,200;0,300;0,400;0,500;0,600;0,700;0,800;0,900;1,100;1,200;1,300;1,400;1,500;1,600;1,700;1,800;1,900&#38;display=swap");
    
      .cls-1 {
        letter-spacing: -.03em;
      }

      .cls-2 {
        letter-spacing: 0em;
      }

      .cls-3, .cls-4, .cls-5 {
        fill: #fff;
      }

      .cls-6 {
        fill: #00a380;
      }

      .cls-7 {
        letter-spacing: -.01em;
      }

      .cls-8 {
        letter-spacing: .01em;
      }

      .cls-9 {
        letter-spacing: 0em;
      }

      .cls-10 {
        letter-spacing: 0em;
      }

      .cls-11 {
        letter-spacing: -.02em;
      }

      .cls-4 {
        font-family: Tomorrow-Regular, Tomorrow;
        font-size: 30px;
      }

      .cls-5 {
        font-family: Tomorrow-SemiBold, Tomorrow;
        font-size: 100px;
        font-weight: 600;
      }

      .cls-12 {
        fill: #393939;
      }
    </style>
  </defs>
  <g id="Layer_1">
    <polygon class="cls-6" points="245.5 145.66 0 145.66 122.75 358.27 245.5 145.66"/>
    <polygon class="cls-12" points="191.28 176.97 18.07 176.97 104.68 326.97 191.28 176.97"/>
    <polygon class="cls-3" points="331.23 9.56 181.23 9.56 106.23 139.47 181.23 269.37 331.23 269.37 406.23 139.47 331.23 9.56"/>
    <polygon class="cls-12" points="311.23 44.2 201.23 44.2 146.23 139.47 201.23 234.73 311.23 234.73 366.23 139.47 311.23 44.2"/>
  </g>
  <g id="Layer_3">
    <g>
      <text class="cls-5" transform="translate(431.88 133.27) scale(.81 1)"><tspan x="0" y="0">S</tspan><tspan class="cls-1" x="69.6" y="0">e</tspan><tspan x="127.5" y="0">a</tspan><tspan class="cls-7" x="188.9" y="0">r</tspan><tspan x="231.4" y="0">ch + </tspan><tspan class="cls-7" x="462.8" y="0">R</tspan><tspan x="533.5" y="0">e</tspan><tspan class="cls-10" x="594.2" y="0">s</tspan><tspan class="cls-9" x="652" y="0">cue</tspan></text>
      <text class="cls-4" transform="translate(437.97 168.52)"><tspan x="0" y="0">RO</tspan><tspan class="cls-2" x="41.13" y="0">B</tspan><tspan x="61.62" y="0">ONO</tspan><tspan class="cls-8" x="124.8" y="0">T</tspan><tspan class="cls-11" x="141.78" y="0">T</tspan><tspan x="157.77" y="0">S TEAM</tspan></text>
    </g>
  </g>
</svg>